<svg width="320" height="80" viewBox="0 0 320 80" fill="none" xmlns="http://www.w3.org/2000/svg">
<g clip-path="url(#clip0_200_78)">
<mask id="mask0_200_78" style="mask-type:luminance" maskUnits="userSpaceOnUse" x="0" y="0" width="320" height="80">
<path d="M320 0H0V80H320V0Z" fill="white"/>
</mask>
<g mask="url(#mask0_200_78)">
<mask id="mask1_200_78" style="mask-type:luminance" maskUnits="userSpaceOnUse" x="0" y="0" width="320" height="80">
<path d="M320 0H0V80H320V0Z" fill="white"/>
</mask>
<g mask="url(#mask1_200_78)">
<path fill-rule="evenodd" clip-rule="evenodd" d="M45.2583 80L80.7417 45.575H80.7333C94.7167 32.0167 100.392 29.9583 127.058 29.9583H233.408L264.008 0H123.025C87.3333 0 77.2417 3.4 56.3083 24.1167L0 80H45.2583ZM127.7 34.7417H228.842L200.792 62.7917H128.225C114.925 62.7917 111.983 63.4167 105.383 70.0167L95.4 80H53.4333L84.4583 48.975C96.6417 36.8 100.842 34.7417 127.7 34.7417ZM320 0L239.783 80H190.175L270.175 0H320Z" fill="#E10600"/>
</g>
</g>
</g>
<defs>
<clipPath id="clip0_200_78">
<rect width="320" height="80" fill="white"/>
</clipPath>
</defs>
</svg>
